<?xml version="1.0" encoding="UTF-8" standalone="no"?>
<!DOCTYPE svg PUBLIC "-//W3C//DTD SVG 1.1//EN"
 "http://www.w3.org/Graphics/SVG/1.1/DTD/svg11.dtd">
<!-- Generated by graphviz version 2.47.3 (20210619.1520)
 -->
<!-- Title: dependencies Pages: 1 -->
<svg width="3595pt" height="247pt"
 viewBox="0.00 0.00 3595.00 246.80" xmlns="http://www.w3.org/2000/svg" xmlns:xlink="http://www.w3.org/1999/xlink">
<g id="graph0" class="graph" transform="scale(1 1) rotate(0) translate(4 242.8)">
<title>dependencies</title>
<polygon fill="white" stroke="transparent" points="-4,4 -4,-242.8 3591,-242.8 3591,4 -4,4"/>
<text text-anchor="middle" x="1793.5" y="-8.2" font-family="sans-serif" font-size="14.00">dependencies</text>
<g id="clust1" class="cluster">
<title>cluster_SharedModule</title>
<polygon fill="none" stroke="black" stroke-dasharray="1,5" points="8,-32.8 8,-230.8 3579,-230.8 3579,-32.8 8,-32.8"/>
</g>
<g id="clust2" class="cluster">
<title>cluster_SharedModule_declarations</title>
<polygon fill="none" stroke="black" points="2433,-40.8 2433,-92.8 3571,-92.8 3571,-40.8 2433,-40.8"/>
</g>
<g id="clust11" class="cluster">
<title>cluster_SharedModule_imports</title>
<polygon fill="none" stroke="black" points="16,-40.8 16,-92.8 2425,-92.8 2425,-40.8 16,-40.8"/>
</g>
<g id="clust12" class="cluster">
<title>cluster_SharedModule_exports</title>
<polygon fill="none" stroke="black" points="1208,-170.8 1208,-222.8 2374,-222.8 2374,-170.8 1208,-170.8"/>
</g>
<!-- ToolbarComponent -->
<g id="node1" class="node">
<title>ToolbarComponent</title>
<polygon fill="#ffffb3" stroke="black" points="3562.65,-84.8 3437.35,-84.8 3437.35,-48.8 3562.65,-48.8 3562.65,-84.8"/>
<text text-anchor="middle" x="3500" y="-62.6" font-family="Times,serif" font-size="14.00">ToolbarComponent</text>
</g>
<!-- SharedModule -->
<g id="node9" class="node">
<title>SharedModule</title>
<polygon fill="#8dd3c7" stroke="black" points="1853.42,-149.8 1850.42,-153.8 1829.42,-153.8 1826.42,-149.8 1754.58,-149.8 1754.58,-113.8 1853.42,-113.8 1853.42,-149.8"/>
<text text-anchor="middle" x="1804" y="-127.6" font-family="Times,serif" font-size="14.00">SharedModule</text>
</g>
<!-- ToolbarComponent&#45;&gt;SharedModule -->
<g id="edge1" class="edge">
<title>ToolbarComponent&#45;&gt;SharedModule</title>
<path fill="none" stroke="black" d="M3500,-85.09C3500,-107.01 3500,-140.8 3500,-140.8 3500,-140.8 1863.38,-140.8 1863.38,-140.8"/>
<polygon fill="black" stroke="black" points="1863.38,-137.3 1853.38,-140.8 1863.38,-144.3 1863.38,-137.3"/>
</g>
<!-- ButtonComponent -->
<g id="node2" class="node">
<title>ButtonComponent</title>
<polygon fill="#ffffb3" stroke="black" points="3418.95,-84.8 3299.05,-84.8 3299.05,-48.8 3418.95,-48.8 3418.95,-84.8"/>
<text text-anchor="middle" x="3359" y="-62.6" font-family="Times,serif" font-size="14.00">ButtonComponent</text>
</g>
<!-- ButtonComponent&#45;&gt;SharedModule -->
<g id="edge2" class="edge">
<title>ButtonComponent&#45;&gt;SharedModule</title>
<path fill="none" stroke="black" d="M3359,-84.97C3359,-106.3 3359,-138.8 3359,-138.8 3359,-138.8 1863.54,-138.8 1863.54,-138.8"/>
<polygon fill="black" stroke="black" points="1863.54,-135.3 1853.54,-138.8 1863.54,-142.3 1863.54,-135.3"/>
</g>
<!-- SidebarComponent -->
<g id="node3" class="node">
<title>SidebarComponent</title>
<polygon fill="#ffffb3" stroke="black" points="3281.1,-84.8 3156.9,-84.8 3156.9,-48.8 3281.1,-48.8 3281.1,-84.8"/>
<text text-anchor="middle" x="3219" y="-62.6" font-family="Times,serif" font-size="14.00">SidebarComponent</text>
</g>
<!-- SidebarComponent&#45;&gt;SharedModule -->
<g id="edge3" class="edge">
<title>SidebarComponent&#45;&gt;SharedModule</title>
<path fill="none" stroke="black" d="M3219,-84.83C3219,-105.57 3219,-136.8 3219,-136.8 3219,-136.8 1863.53,-136.8 1863.53,-136.8"/>
<polygon fill="black" stroke="black" points="1863.53,-133.3 1853.53,-136.8 1863.53,-140.3 1863.53,-133.3"/>
</g>
<!-- PageTitleComponent -->
<g id="node4" class="node">
<title>PageTitleComponent</title>
<polygon fill="#ffffb3" stroke="black" points="3138.48,-84.8 3003.52,-84.8 3003.52,-48.8 3138.48,-48.8 3138.48,-84.8"/>
<text text-anchor="middle" x="3071" y="-62.6" font-family="Times,serif" font-size="14.00">PageTitleComponent</text>
</g>
<!-- PageTitleComponent&#45;&gt;SharedModule -->
<g id="edge4" class="edge">
<title>PageTitleComponent&#45;&gt;SharedModule</title>
<path fill="none" stroke="black" d="M3071,-85.02C3071,-105.17 3071,-134.8 3071,-134.8 3071,-134.8 1863.28,-134.8 1863.28,-134.8"/>
<polygon fill="black" stroke="black" points="1863.28,-131.3 1853.28,-134.8 1863.28,-138.3 1863.28,-131.3"/>
</g>
<!-- InputComponent -->
<g id="node5" class="node">
<title>InputComponent</title>
<polygon fill="#ffffb3" stroke="black" points="2985.38,-84.8 2874.62,-84.8 2874.62,-48.8 2985.38,-48.8 2985.38,-84.8"/>
<text text-anchor="middle" x="2930" y="-62.6" font-family="Times,serif" font-size="14.00">InputComponent</text>
</g>
<!-- InputComponent&#45;&gt;SharedModule -->
<g id="edge5" class="edge">
<title>InputComponent&#45;&gt;SharedModule</title>
<path fill="none" stroke="black" d="M2930,-84.91C2930,-104.14 2930,-131.8 2930,-131.8 2930,-131.8 1863.47,-131.8 1863.47,-131.8"/>
<polygon fill="black" stroke="black" points="1863.47,-128.3 1853.47,-131.8 1863.47,-135.3 1863.47,-128.3"/>
</g>
<!-- TableComponent -->
<g id="node6" class="node">
<title>TableComponent</title>
<polygon fill="#ffffb3" stroke="black" points="2856.7,-84.8 2743.3,-84.8 2743.3,-48.8 2856.7,-48.8 2856.7,-84.8"/>
<text text-anchor="middle" x="2800" y="-62.6" font-family="Times,serif" font-size="14.00">TableComponent</text>
</g>
<!-- TableComponent&#45;&gt;SharedModule -->
<g id="edge6" class="edge">
<title>TableComponent&#45;&gt;SharedModule</title>
<path fill="none" stroke="black" d="M2800,-85.02C2800,-103.63 2800,-129.8 2800,-129.8 2800,-129.8 1863.39,-129.8 1863.39,-129.8"/>
<polygon fill="black" stroke="black" points="1863.39,-126.3 1853.39,-129.8 1863.39,-133.3 1863.39,-126.3"/>
</g>
<!-- QuartoCardComponent -->
<g id="node7" class="node">
<title>QuartoCardComponent</title>
<polygon fill="#ffffb3" stroke="black" points="2725.92,-84.8 2578.08,-84.8 2578.08,-48.8 2725.92,-48.8 2725.92,-84.8"/>
<text text-anchor="middle" x="2652" y="-62.6" font-family="Times,serif" font-size="14.00">QuartoCardComponent</text>
</g>
<!-- QuartoCardComponent&#45;&gt;SharedModule -->
<g id="edge7" class="edge">
<title>QuartoCardComponent&#45;&gt;SharedModule</title>
<path fill="none" stroke="black" d="M2652,-85.1C2652,-103.07 2652,-127.8 2652,-127.8 2652,-127.8 1863.26,-127.8 1863.26,-127.8"/>
<polygon fill="black" stroke="black" points="1863.26,-124.3 1853.26,-127.8 1863.26,-131.3 1863.26,-124.3"/>
</g>
<!-- DialogComponent -->
<g id="node8" class="node">
<title>DialogComponent</title>
<polygon fill="#ffffb3" stroke="black" points="2560.94,-84.8 2441.06,-84.8 2441.06,-48.8 2560.94,-48.8 2560.94,-84.8"/>
<text text-anchor="middle" x="2501" y="-62.6" font-family="Times,serif" font-size="14.00">DialogComponent</text>
</g>
<!-- DialogComponent&#45;&gt;SharedModule -->
<g id="edge8" class="edge">
<title>DialogComponent&#45;&gt;SharedModule</title>
<path fill="none" stroke="black" d="M2501,-84.82C2501,-102.17 2501,-125.8 2501,-125.8 2501,-125.8 1863.29,-125.8 1863.29,-125.8"/>
<polygon fill="black" stroke="black" points="1863.29,-122.3 1853.29,-125.8 1863.29,-129.3 1863.29,-122.3"/>
</g>
<!-- ToolbarComponent  -->
<g id="node27" class="node">
<title>ToolbarComponent </title>
<polygon fill="#fb8072" stroke="black" points="2365.65,-214.8 2236.35,-214.8 2236.35,-178.8 2365.65,-178.8 2365.65,-214.8"/>
<text text-anchor="middle" x="2301" y="-192.6" font-family="Times,serif" font-size="14.00">ToolbarComponent </text>
</g>
<!-- SharedModule&#45;&gt;ToolbarComponent  -->
<g id="edge26" class="edge">
<title>SharedModule&#45;&gt;ToolbarComponent </title>
<path fill="none" stroke="black" stroke-dasharray="5,2" d="M1853.45,-143.8C1971.89,-143.8 2262.04,-143.8 2262.04,-143.8 2262.04,-143.8 2262.04,-168.56 2262.04,-168.56"/>
<polygon fill="black" stroke="black" points="2258.54,-168.56 2262.04,-178.56 2265.54,-168.56 2258.54,-168.56"/>
</g>
<!-- SidebarComponent  -->
<g id="node28" class="node">
<title>SidebarComponent </title>
<polygon fill="#fb8072" stroke="black" points="2218.6,-214.8 2091.4,-214.8 2091.4,-178.8 2218.6,-178.8 2218.6,-214.8"/>
<text text-anchor="middle" x="2155" y="-192.6" font-family="Times,serif" font-size="14.00">SidebarComponent </text>
</g>
<!-- SharedModule&#45;&gt;SidebarComponent  -->
<g id="edge27" class="edge">
<title>SharedModule&#45;&gt;SidebarComponent </title>
<path fill="none" stroke="black" stroke-dasharray="5,2" d="M1853.56,-145.8C1945.38,-145.8 2132.68,-145.8 2132.68,-145.8 2132.68,-145.8 2132.68,-168.68 2132.68,-168.68"/>
<polygon fill="black" stroke="black" points="2129.18,-168.68 2132.68,-178.68 2136.18,-168.68 2129.18,-168.68"/>
</g>
<!-- InputComponent  -->
<g id="node29" class="node">
<title>InputComponent </title>
<polygon fill="#fb8072" stroke="black" points="2073.38,-214.8 1958.62,-214.8 1958.62,-178.8 2073.38,-178.8 2073.38,-214.8"/>
<text text-anchor="middle" x="2016" y="-192.6" font-family="Times,serif" font-size="14.00">InputComponent </text>
</g>
<!-- SharedModule&#45;&gt;InputComponent  -->
<g id="edge28" class="edge">
<title>SharedModule&#45;&gt;InputComponent </title>
<path fill="none" stroke="black" stroke-dasharray="5,2" d="M1853.6,-147.8C1907.34,-147.8 1985.51,-147.8 1985.51,-147.8 1985.51,-147.8 1985.51,-168.55 1985.51,-168.55"/>
<polygon fill="black" stroke="black" points="1982.01,-168.55 1985.51,-178.55 1989.01,-168.55 1982.01,-168.55"/>
</g>
<!-- ButtonComponent  -->
<g id="node30" class="node">
<title>ButtonComponent </title>
<polygon fill="#fb8072" stroke="black" points="1940.45,-214.8 1817.55,-214.8 1817.55,-178.8 1940.45,-178.8 1940.45,-214.8"/>
<text text-anchor="middle" x="1879" y="-192.6" font-family="Times,serif" font-size="14.00">ButtonComponent </text>
</g>
<!-- SharedModule&#45;&gt;ButtonComponent  -->
<g id="edge29" class="edge">
<title>SharedModule&#45;&gt;ButtonComponent </title>
<path fill="none" stroke="black" stroke-dasharray="5,2" d="M1835.37,-149.91C1835.37,-149.91 1835.37,-168.79 1835.37,-168.79"/>
<polygon fill="black" stroke="black" points="1831.87,-168.79 1835.37,-178.79 1838.87,-168.79 1831.87,-168.79"/>
</g>
<!-- PageTitleComponent  -->
<g id="node31" class="node">
<title>PageTitleComponent </title>
<polygon fill="#fb8072" stroke="black" points="1799.48,-214.8 1660.52,-214.8 1660.52,-178.8 1799.48,-178.8 1799.48,-214.8"/>
<text text-anchor="middle" x="1730" y="-192.6" font-family="Times,serif" font-size="14.00">PageTitleComponent </text>
</g>
<!-- SharedModule&#45;&gt;PageTitleComponent  -->
<g id="edge30" class="edge">
<title>SharedModule&#45;&gt;PageTitleComponent </title>
<path fill="none" stroke="black" stroke-dasharray="5,2" d="M1777.02,-149.91C1777.02,-149.91 1777.02,-168.79 1777.02,-168.79"/>
<polygon fill="black" stroke="black" points="1773.52,-168.79 1777.02,-178.79 1780.52,-168.79 1773.52,-168.79"/>
</g>
<!-- TableComponent  -->
<g id="node32" class="node">
<title>TableComponent </title>
<polygon fill="#fb8072" stroke="black" points="1642.21,-214.8 1525.79,-214.8 1525.79,-178.8 1642.21,-178.8 1642.21,-214.8"/>
<text text-anchor="middle" x="1584" y="-192.6" font-family="Times,serif" font-size="14.00">TableComponent </text>
</g>
<!-- SharedModule&#45;&gt;TableComponent  -->
<g id="edge31" class="edge">
<title>SharedModule&#45;&gt;TableComponent </title>
<path fill="none" stroke="black" stroke-dasharray="5,2" d="M1754.78,-147.8C1700.92,-147.8 1622.12,-147.8 1622.12,-147.8 1622.12,-147.8 1622.12,-168.55 1622.12,-168.55"/>
<polygon fill="black" stroke="black" points="1618.62,-168.55 1622.12,-178.55 1625.62,-168.55 1618.62,-168.55"/>
</g>
<!-- QuartoCardComponent  -->
<g id="node33" class="node">
<title>QuartoCardComponent </title>
<polygon fill="#fb8072" stroke="black" points="1507.42,-214.8 1356.58,-214.8 1356.58,-178.8 1507.42,-178.8 1507.42,-214.8"/>
<text text-anchor="middle" x="1432" y="-192.6" font-family="Times,serif" font-size="14.00">QuartoCardComponent </text>
</g>
<!-- SharedModule&#45;&gt;QuartoCardComponent  -->
<g id="edge32" class="edge">
<title>SharedModule&#45;&gt;QuartoCardComponent </title>
<path fill="none" stroke="black" stroke-dasharray="5,2" d="M1754.56,-145.8C1666.58,-145.8 1491.99,-145.8 1491.99,-145.8 1491.99,-145.8 1491.99,-168.68 1491.99,-168.68"/>
<polygon fill="black" stroke="black" points="1488.49,-168.68 1491.99,-178.68 1495.49,-168.68 1488.49,-168.68"/>
</g>
<!-- DialogComponent  -->
<g id="node34" class="node">
<title>DialogComponent </title>
<polygon fill="#fb8072" stroke="black" points="1338.43,-214.8 1215.57,-214.8 1215.57,-178.8 1338.43,-178.8 1338.43,-214.8"/>
<text text-anchor="middle" x="1277" y="-192.6" font-family="Times,serif" font-size="14.00">DialogComponent </text>
</g>
<!-- SharedModule&#45;&gt;DialogComponent  -->
<g id="edge33" class="edge">
<title>SharedModule&#45;&gt;DialogComponent </title>
<path fill="none" stroke="black" stroke-dasharray="5,2" d="M1754.5,-143.8C1632.01,-143.8 1324.59,-143.8 1324.59,-143.8 1324.59,-143.8 1324.59,-168.56 1324.59,-168.56"/>
<polygon fill="black" stroke="black" points="1321.09,-168.56 1324.59,-178.56 1328.09,-168.56 1321.09,-168.56"/>
</g>
<!-- CommonModule -->
<g id="node10" class="node">
<title>CommonModule</title>
<polygon fill="#8dd3c7" stroke="black" points="2416.67,-84.8 2413.67,-88.8 2392.67,-88.8 2389.67,-84.8 2305.33,-84.8 2305.33,-48.8 2416.67,-48.8 2416.67,-84.8"/>
<text text-anchor="middle" x="2361" y="-62.6" font-family="Times,serif" font-size="14.00">CommonModule</text>
</g>
<!-- CommonModule&#45;&gt;SharedModule -->
<g id="edge9" class="edge">
<title>CommonModule&#45;&gt;SharedModule</title>
<path fill="none" stroke="black" d="M2335.37,-84.83C2335.37,-101.2 2335.37,-122.8 2335.37,-122.8 2335.37,-122.8 1863.51,-122.8 1863.51,-122.8"/>
<polygon fill="black" stroke="black" points="1863.51,-119.3 1853.51,-122.8 1863.51,-126.3 1863.51,-119.3"/>
</g>
<!-- FormsModule -->
<g id="node11" class="node">
<title>FormsModule</title>
<polygon fill="#8dd3c7" stroke="black" points="2287.83,-84.8 2284.83,-88.8 2263.83,-88.8 2260.83,-84.8 2192.17,-84.8 2192.17,-48.8 2287.83,-48.8 2287.83,-84.8"/>
<text text-anchor="middle" x="2240" y="-62.6" font-family="Times,serif" font-size="14.00">FormsModule</text>
</g>
<!-- FormsModule&#45;&gt;SharedModule -->
<g id="edge10" class="edge">
<title>FormsModule&#45;&gt;SharedModule</title>
<path fill="none" stroke="black" d="M2205.57,-85.08C2205.57,-100.75 2205.57,-120.8 2205.57,-120.8 2205.57,-120.8 1863.24,-120.8 1863.24,-120.8"/>
<polygon fill="black" stroke="black" points="1863.24,-117.3 1853.24,-120.8 1863.24,-124.3 1863.24,-117.3"/>
</g>
<!-- ReactiveFormsModule -->
<g id="node12" class="node">
<title>ReactiveFormsModule</title>
<polygon fill="#8dd3c7" stroke="black" points="2174.3,-84.8 2171.3,-88.8 2150.3,-88.8 2147.3,-84.8 2029.7,-84.8 2029.7,-48.8 2174.3,-48.8 2174.3,-84.8"/>
<text text-anchor="middle" x="2102" y="-62.6" font-family="Times,serif" font-size="14.00">ReactiveFormsModule</text>
</g>
<!-- ReactiveFormsModule&#45;&gt;SharedModule -->
<g id="edge11" class="edge">
<title>ReactiveFormsModule&#45;&gt;SharedModule</title>
<path fill="none" stroke="black" d="M2051.52,-84.99C2051.52,-99.98 2051.52,-118.8 2051.52,-118.8 2051.52,-118.8 1863.49,-118.8 1863.49,-118.8"/>
<polygon fill="black" stroke="black" points="1863.49,-115.3 1853.49,-118.8 1863.49,-122.3 1863.49,-115.3"/>
</g>
<!-- MatToolbarModule -->
<g id="node13" class="node">
<title>MatToolbarModule</title>
<polygon fill="#8dd3c7" stroke="black" points="2012.42,-84.8 2009.42,-88.8 1988.42,-88.8 1985.42,-84.8 1885.58,-84.8 1885.58,-48.8 2012.42,-48.8 2012.42,-84.8"/>
<text text-anchor="middle" x="1949" y="-62.6" font-family="Times,serif" font-size="14.00">MatToolbarModule</text>
</g>
<!-- MatToolbarModule&#45;&gt;SharedModule -->
<g id="edge12" class="edge">
<title>MatToolbarModule&#45;&gt;SharedModule</title>
<path fill="none" stroke="black" d="M1913.13,-84.85C1913.13,-99.17 1913.13,-116.8 1913.13,-116.8 1913.13,-116.8 1863.46,-116.8 1863.46,-116.8"/>
<polygon fill="black" stroke="black" points="1863.46,-113.3 1853.46,-116.8 1863.46,-120.3 1863.46,-113.3"/>
</g>
<!-- MatSidenavModule -->
<g id="node14" class="node">
<title>MatSidenavModule</title>
<polygon fill="#8dd3c7" stroke="black" points="1867.7,-84.8 1864.7,-88.8 1843.7,-88.8 1840.7,-84.8 1740.3,-84.8 1740.3,-48.8 1867.7,-48.8 1867.7,-84.8"/>
<text text-anchor="middle" x="1804" y="-62.6" font-family="Times,serif" font-size="14.00">MatSidenavModule</text>
</g>
<!-- MatSidenavModule&#45;&gt;SharedModule -->
<g id="edge13" class="edge">
<title>MatSidenavModule&#45;&gt;SharedModule</title>
<path fill="none" stroke="black" d="M1804,-84.91C1804,-84.91 1804,-103.79 1804,-103.79"/>
<polygon fill="black" stroke="black" points="1800.5,-103.79 1804,-113.79 1807.5,-103.79 1800.5,-103.79"/>
</g>
<!-- MatButtonModule -->
<g id="node15" class="node">
<title>MatButtonModule</title>
<polygon fill="#8dd3c7" stroke="black" points="1722.22,-84.8 1719.22,-88.8 1698.22,-88.8 1695.22,-84.8 1601.78,-84.8 1601.78,-48.8 1722.22,-48.8 1722.22,-84.8"/>
<text text-anchor="middle" x="1662" y="-62.6" font-family="Times,serif" font-size="14.00">MatButtonModule</text>
</g>
<!-- MatButtonModule&#45;&gt;SharedModule -->
<g id="edge14" class="edge">
<title>MatButtonModule&#45;&gt;SharedModule</title>
<path fill="none" stroke="black" d="M1691.43,-84.85C1691.43,-99.17 1691.43,-116.8 1691.43,-116.8 1691.43,-116.8 1744.63,-116.8 1744.63,-116.8"/>
<polygon fill="black" stroke="black" points="1744.63,-120.3 1754.63,-116.8 1744.63,-113.3 1744.63,-120.3"/>
</g>
<!-- MatIconModule -->
<g id="node16" class="node">
<title>MatIconModule</title>
<polygon fill="#8dd3c7" stroke="black" points="1583.47,-84.8 1580.47,-88.8 1559.47,-88.8 1556.47,-84.8 1476.53,-84.8 1476.53,-48.8 1583.47,-48.8 1583.47,-84.8"/>
<text text-anchor="middle" x="1530" y="-62.6" font-family="Times,serif" font-size="14.00">MatIconModule</text>
</g>
<!-- MatIconModule&#45;&gt;SharedModule -->
<g id="edge15" class="edge">
<title>MatIconModule&#45;&gt;SharedModule</title>
<path fill="none" stroke="black" d="M1554.57,-84.99C1554.57,-99.98 1554.57,-118.8 1554.57,-118.8 1554.57,-118.8 1744.72,-118.8 1744.72,-118.8"/>
<polygon fill="black" stroke="black" points="1744.72,-122.3 1754.72,-118.8 1744.72,-115.3 1744.72,-122.3"/>
</g>
<!-- MatDividerModule -->
<g id="node17" class="node">
<title>MatDividerModule</title>
<polygon fill="#8dd3c7" stroke="black" points="1458.36,-84.8 1455.36,-88.8 1434.36,-88.8 1431.36,-84.8 1333.64,-84.8 1333.64,-48.8 1458.36,-48.8 1458.36,-84.8"/>
<text text-anchor="middle" x="1396" y="-62.6" font-family="Times,serif" font-size="14.00">MatDividerModule</text>
</g>
<!-- MatDividerModule&#45;&gt;SharedModule -->
<g id="edge16" class="edge">
<title>MatDividerModule&#45;&gt;SharedModule</title>
<path fill="none" stroke="black" d="M1407.49,-85.08C1407.49,-100.75 1407.49,-120.8 1407.49,-120.8 1407.49,-120.8 1744.58,-120.8 1744.58,-120.8"/>
<polygon fill="black" stroke="black" points="1744.58,-124.3 1754.58,-120.8 1744.58,-117.3 1744.58,-124.3"/>
</g>
<!-- MatFormFieldModule -->
<g id="node18" class="node">
<title>MatFormFieldModule</title>
<polygon fill="#8dd3c7" stroke="black" points="1315.71,-84.8 1312.71,-88.8 1291.71,-88.8 1288.71,-84.8 1174.29,-84.8 1174.29,-48.8 1315.71,-48.8 1315.71,-84.8"/>
<text text-anchor="middle" x="1245" y="-62.6" font-family="Times,serif" font-size="14.00">MatFormFieldModule</text>
</g>
<!-- MatFormFieldModule&#45;&gt;SharedModule -->
<g id="edge17" class="edge">
<title>MatFormFieldModule&#45;&gt;SharedModule</title>
<path fill="none" stroke="black" d="M1265.57,-84.83C1265.57,-101.2 1265.57,-122.8 1265.57,-122.8 1265.57,-122.8 1744.31,-122.8 1744.31,-122.8"/>
<polygon fill="black" stroke="black" points="1744.31,-126.3 1754.31,-122.8 1744.31,-119.3 1744.31,-126.3"/>
</g>
<!-- MatInputModule -->
<g id="node19" class="node">
<title>MatInputModule</title>
<polygon fill="#8dd3c7" stroke="black" points="1156.65,-84.8 1153.65,-88.8 1132.65,-88.8 1129.65,-84.8 1045.35,-84.8 1045.35,-48.8 1156.65,-48.8 1156.65,-84.8"/>
<text text-anchor="middle" x="1101" y="-62.6" font-family="Times,serif" font-size="14.00">MatInputModule</text>
</g>
<!-- MatInputModule&#45;&gt;SharedModule -->
<g id="edge18" class="edge">
<title>MatInputModule&#45;&gt;SharedModule</title>
<path fill="none" stroke="black" d="M1101,-84.82C1101,-102.17 1101,-125.8 1101,-125.8 1101,-125.8 1744.57,-125.8 1744.57,-125.8"/>
<polygon fill="black" stroke="black" points="1744.57,-129.3 1754.57,-125.8 1744.57,-122.3 1744.57,-129.3"/>
</g>
<!-- MatCardModule -->
<g id="node20" class="node">
<title>MatCardModule</title>
<polygon fill="#8dd3c7" stroke="black" points="1027.81,-84.8 1024.81,-88.8 1003.81,-88.8 1000.81,-84.8 918.19,-84.8 918.19,-48.8 1027.81,-48.8 1027.81,-84.8"/>
<text text-anchor="middle" x="973" y="-62.6" font-family="Times,serif" font-size="14.00">MatCardModule</text>
</g>
<!-- MatCardModule&#45;&gt;SharedModule -->
<g id="edge19" class="edge">
<title>MatCardModule&#45;&gt;SharedModule</title>
<path fill="none" stroke="black" d="M973,-85.1C973,-103.07 973,-127.8 973,-127.8 973,-127.8 1744.51,-127.8 1744.51,-127.8"/>
<polygon fill="black" stroke="black" points="1744.51,-131.3 1754.51,-127.8 1744.51,-124.3 1744.51,-131.3"/>
</g>
<!-- MatTableModule -->
<g id="node21" class="node">
<title>MatTableModule</title>
<polygon fill="#8dd3c7" stroke="black" points="899.97,-84.8 896.97,-88.8 875.97,-88.8 872.97,-84.8 786.03,-84.8 786.03,-48.8 899.97,-48.8 899.97,-84.8"/>
<text text-anchor="middle" x="843" y="-62.6" font-family="Times,serif" font-size="14.00">MatTableModule</text>
</g>
<!-- MatTableModule&#45;&gt;SharedModule -->
<g id="edge20" class="edge">
<title>MatTableModule&#45;&gt;SharedModule</title>
<path fill="none" stroke="black" d="M843,-85.02C843,-103.63 843,-129.8 843,-129.8 843,-129.8 1744.69,-129.8 1744.69,-129.8"/>
<polygon fill="black" stroke="black" points="1744.69,-133.3 1754.69,-129.8 1744.69,-126.3 1744.69,-133.3"/>
</g>
<!-- MatPaginatorModule -->
<g id="node22" class="node">
<title>MatPaginatorModule</title>
<polygon fill="#8dd3c7" stroke="black" points="767.75,-84.8 764.75,-88.8 743.75,-88.8 740.75,-84.8 632.25,-84.8 632.25,-48.8 767.75,-48.8 767.75,-84.8"/>
<text text-anchor="middle" x="700" y="-62.6" font-family="Times,serif" font-size="14.00">MatPaginatorModule</text>
</g>
<!-- MatPaginatorModule&#45;&gt;SharedModule -->
<g id="edge21" class="edge">
<title>MatPaginatorModule&#45;&gt;SharedModule</title>
<path fill="none" stroke="black" d="M700,-84.91C700,-104.14 700,-131.8 700,-131.8 700,-131.8 1744.78,-131.8 1744.78,-131.8"/>
<polygon fill="black" stroke="black" points="1744.78,-135.3 1754.78,-131.8 1744.78,-128.3 1744.78,-135.3"/>
</g>
<!-- MatSortModule -->
<g id="node23" class="node">
<title>MatSortModule</title>
<polygon fill="#8dd3c7" stroke="black" points="613.93,-84.8 610.93,-88.8 589.93,-88.8 586.93,-84.8 508.07,-84.8 508.07,-48.8 613.93,-48.8 613.93,-84.8"/>
<text text-anchor="middle" x="561" y="-62.6" font-family="Times,serif" font-size="14.00">MatSortModule</text>
</g>
<!-- MatSortModule&#45;&gt;SharedModule -->
<g id="edge22" class="edge">
<title>MatSortModule&#45;&gt;SharedModule</title>
<path fill="none" stroke="black" d="M561,-85.02C561,-105.17 561,-134.8 561,-134.8 561,-134.8 1744.51,-134.8 1744.51,-134.8"/>
<polygon fill="black" stroke="black" points="1744.51,-138.3 1754.51,-134.8 1744.51,-131.3 1744.51,-138.3"/>
</g>
<!-- MatProgressSpinnerModule -->
<g id="node24" class="node">
<title>MatProgressSpinnerModule</title>
<polygon fill="#8dd3c7" stroke="black" points="489.86,-84.8 486.86,-88.8 465.86,-88.8 462.86,-84.8 316.14,-84.8 316.14,-48.8 489.86,-48.8 489.86,-84.8"/>
<text text-anchor="middle" x="403" y="-62.6" font-family="Times,serif" font-size="14.00">MatProgressSpinnerModule</text>
</g>
<!-- MatProgressSpinnerModule&#45;&gt;SharedModule -->
<g id="edge23" class="edge">
<title>MatProgressSpinnerModule&#45;&gt;SharedModule</title>
<path fill="none" stroke="black" d="M403,-84.83C403,-105.57 403,-136.8 403,-136.8 403,-136.8 1744.55,-136.8 1744.55,-136.8"/>
<polygon fill="black" stroke="black" points="1744.55,-140.3 1754.55,-136.8 1744.55,-133.3 1744.55,-140.3"/>
</g>
<!-- MatSnackBarModule -->
<g id="node25" class="node">
<title>MatSnackBarModule</title>
<polygon fill="#8dd3c7" stroke="black" points="298.02,-84.8 295.02,-88.8 274.02,-88.8 271.02,-84.8 161.98,-84.8 161.98,-48.8 298.02,-48.8 298.02,-84.8"/>
<text text-anchor="middle" x="230" y="-62.6" font-family="Times,serif" font-size="14.00">MatSnackBarModule</text>
</g>
<!-- MatSnackBarModule&#45;&gt;SharedModule -->
<g id="edge24" class="edge">
<title>MatSnackBarModule&#45;&gt;SharedModule</title>
<path fill="none" stroke="black" d="M230,-84.97C230,-106.3 230,-138.8 230,-138.8 230,-138.8 1744.73,-138.8 1744.73,-138.8"/>
<polygon fill="black" stroke="black" points="1744.73,-142.3 1754.73,-138.8 1744.73,-135.3 1744.73,-142.3"/>
</g>
<!-- MatDialogModule -->
<g id="node26" class="node">
<title>MatDialogModule</title>
<polygon fill="#8dd3c7" stroke="black" points="144.2,-84.8 141.2,-88.8 120.2,-88.8 117.2,-84.8 23.8,-84.8 23.8,-48.8 144.2,-48.8 144.2,-84.8"/>
<text text-anchor="middle" x="84" y="-62.6" font-family="Times,serif" font-size="14.00">MatDialogModule</text>
</g>
<!-- MatDialogModule&#45;&gt;SharedModule -->
<g id="edge25" class="edge">
<title>MatDialogModule&#45;&gt;SharedModule</title>
<path fill="none" stroke="black" d="M84,-85.09C84,-107.01 84,-140.8 84,-140.8 84,-140.8 1744.38,-140.8 1744.38,-140.8"/>
<polygon fill="black" stroke="black" points="1744.38,-144.3 1754.38,-140.8 1744.38,-137.3 1744.38,-144.3"/>
</g>
</g>
</svg>
