<?xml version="1.0" encoding="UTF-8" standalone="no"?>
<!DOCTYPE svg PUBLIC "-//W3C//DTD SVG 1.1//EN"
 "http://www.w3.org/Graphics/SVG/1.1/DTD/svg11.dtd">
<!-- Generated by graphviz version 2.47.3 (20210619.1520)
 -->
<!-- Title: dependencies Pages: 1 -->
<svg width="1469pt" height="247pt"
 viewBox="0.00 0.00 1469.00 246.80" xmlns="http://www.w3.org/2000/svg" xmlns:xlink="http://www.w3.org/1999/xlink">
<g id="graph0" class="graph" transform="scale(1 1) rotate(0) translate(4 242.8)">
<title>dependencies</title>
<polygon fill="white" stroke="transparent" points="-4,4 -4,-242.8 1465,-242.8 1465,4 -4,4"/>
<text text-anchor="middle" x="730.5" y="-8.2" font-family="sans-serif" font-size="14.00">dependencies</text>
<g id="clust1" class="cluster">
<title>cluster_QuartoModule</title>
<polygon fill="none" stroke="black" stroke-dasharray="1,5" points="8,-32.8 8,-230.8 1453,-230.8 1453,-32.8 8,-32.8"/>
</g>
<g id="clust5" class="cluster">
<title>cluster_QuartoModule_exports</title>
<polygon fill="none" stroke="black" points="662,-170.8 662,-222.8 824,-222.8 824,-170.8 662,-170.8"/>
</g>
<g id="clust2" class="cluster">
<title>cluster_QuartoModule_declarations</title>
<polygon fill="none" stroke="black" points="1287,-40.8 1287,-92.8 1445,-92.8 1445,-40.8 1287,-40.8"/>
</g>
<g id="clust4" class="cluster">
<title>cluster_QuartoModule_imports</title>
<polygon fill="none" stroke="black" points="16,-40.8 16,-92.8 1279,-92.8 1279,-40.8 16,-40.8"/>
</g>
<!-- QuartoListComponent -->
<g id="node1" class="node">
<title>QuartoListComponent</title>
<polygon fill="#ffffb3" stroke="black" points="1436.98,-84.8 1295.02,-84.8 1295.02,-48.8 1436.98,-48.8 1436.98,-84.8"/>
<text text-anchor="middle" x="1366" y="-62.6" font-family="Times,serif" font-size="14.00">QuartoListComponent</text>
</g>
<!-- QuartoModule -->
<g id="node2" class="node">
<title>QuartoModule</title>
<polygon fill="#8dd3c7" stroke="black" points="792.42,-149.8 789.42,-153.8 768.42,-153.8 765.42,-149.8 693.58,-149.8 693.58,-113.8 792.42,-113.8 792.42,-149.8"/>
<text text-anchor="middle" x="743" y="-127.6" font-family="Times,serif" font-size="14.00">QuartoModule</text>
</g>
<!-- QuartoListComponent&#45;&gt;QuartoModule -->
<g id="edge1" class="edge">
<title>QuartoListComponent&#45;&gt;QuartoModule</title>
<path fill="none" stroke="black" d="M1366,-84.81C1366,-107.29 1366,-142.8 1366,-142.8 1366,-142.8 802.41,-142.8 802.41,-142.8"/>
<polygon fill="black" stroke="black" points="802.41,-139.3 792.41,-142.8 802.41,-146.3 802.41,-139.3"/>
</g>
<!-- QuartoListComponent  -->
<g id="node12" class="node">
<title>QuartoListComponent </title>
<polygon fill="#fb8072" stroke="black" points="815.98,-214.8 670.02,-214.8 670.02,-178.8 815.98,-178.8 815.98,-214.8"/>
<text text-anchor="middle" x="743" y="-192.6" font-family="Times,serif" font-size="14.00">QuartoListComponent </text>
</g>
<!-- QuartoModule&#45;&gt;QuartoListComponent  -->
<g id="edge11" class="edge">
<title>QuartoModule&#45;&gt;QuartoListComponent </title>
<path fill="none" stroke="black" stroke-dasharray="5,2" d="M743,-149.91C743,-149.91 743,-168.79 743,-168.79"/>
<polygon fill="black" stroke="black" points="739.5,-168.79 743,-178.79 746.5,-168.79 739.5,-168.79"/>
</g>
<!-- CommonModule -->
<g id="node3" class="node">
<title>CommonModule</title>
<polygon fill="#8dd3c7" stroke="black" points="1270.67,-84.8 1267.67,-88.8 1246.67,-88.8 1243.67,-84.8 1159.33,-84.8 1159.33,-48.8 1270.67,-48.8 1270.67,-84.8"/>
<text text-anchor="middle" x="1215" y="-62.6" font-family="Times,serif" font-size="14.00">CommonModule</text>
</g>
<!-- CommonModule&#45;&gt;QuartoModule -->
<g id="edge2" class="edge">
<title>CommonModule&#45;&gt;QuartoModule</title>
<path fill="none" stroke="black" d="M1215,-84.93C1215,-105.37 1215,-135.8 1215,-135.8 1215,-135.8 802.62,-135.8 802.62,-135.8"/>
<polygon fill="black" stroke="black" points="802.62,-132.3 792.62,-135.8 802.62,-139.3 802.62,-132.3"/>
</g>
<!-- MatCardModule -->
<g id="node4" class="node">
<title>MatCardModule</title>
<polygon fill="#8dd3c7" stroke="black" points="1141.81,-84.8 1138.81,-88.8 1117.81,-88.8 1114.81,-84.8 1032.19,-84.8 1032.19,-48.8 1141.81,-48.8 1141.81,-84.8"/>
<text text-anchor="middle" x="1087" y="-62.6" font-family="Times,serif" font-size="14.00">MatCardModule</text>
</g>
<!-- MatCardModule&#45;&gt;QuartoModule -->
<g id="edge3" class="edge">
<title>MatCardModule&#45;&gt;QuartoModule</title>
<path fill="none" stroke="black" d="M1087,-85.07C1087,-103.36 1087,-128.8 1087,-128.8 1087,-128.8 802.29,-128.8 802.29,-128.8"/>
<polygon fill="black" stroke="black" points="802.29,-125.3 792.29,-128.8 802.29,-132.3 802.29,-125.3"/>
</g>
<!-- MatButtonModule -->
<g id="node5" class="node">
<title>MatButtonModule</title>
<polygon fill="#8dd3c7" stroke="black" points="1014.22,-84.8 1011.22,-88.8 990.22,-88.8 987.22,-84.8 893.78,-84.8 893.78,-48.8 1014.22,-48.8 1014.22,-84.8"/>
<text text-anchor="middle" x="954" y="-62.6" font-family="Times,serif" font-size="14.00">MatButtonModule</text>
</g>
<!-- MatButtonModule&#45;&gt;QuartoModule -->
<g id="edge4" class="edge">
<title>MatButtonModule&#45;&gt;QuartoModule</title>
<path fill="none" stroke="black" d="M954,-84.81C954,-100.85 954,-121.8 954,-121.8 954,-121.8 802.47,-121.8 802.47,-121.8"/>
<polygon fill="black" stroke="black" points="802.47,-118.3 792.47,-121.8 802.47,-125.3 802.47,-118.3"/>
</g>
<!-- MatIconModule -->
<g id="node6" class="node">
<title>MatIconModule</title>
<polygon fill="#8dd3c7" stroke="black" points="875.47,-84.8 872.47,-88.8 851.47,-88.8 848.47,-84.8 768.53,-84.8 768.53,-48.8 875.47,-48.8 875.47,-84.8"/>
<text text-anchor="middle" x="822" y="-62.6" font-family="Times,serif" font-size="14.00">MatIconModule</text>
</g>
<!-- MatIconModule&#45;&gt;QuartoModule -->
<g id="edge5" class="edge">
<title>MatIconModule&#45;&gt;QuartoModule</title>
<path fill="none" stroke="black" d="M780.36,-84.91C780.36,-84.91 780.36,-103.79 780.36,-103.79"/>
<polygon fill="black" stroke="black" points="776.86,-103.79 780.36,-113.79 783.86,-103.79 776.86,-103.79"/>
</g>
<!-- MatProgressSpinnerModule -->
<g id="node7" class="node">
<title>MatProgressSpinnerModule</title>
<polygon fill="#8dd3c7" stroke="black" points="750.86,-84.8 747.86,-88.8 726.86,-88.8 723.86,-84.8 577.14,-84.8 577.14,-48.8 750.86,-48.8 750.86,-84.8"/>
<text text-anchor="middle" x="664" y="-62.6" font-family="Times,serif" font-size="14.00">MatProgressSpinnerModule</text>
</g>
<!-- MatProgressSpinnerModule&#45;&gt;QuartoModule -->
<g id="edge6" class="edge">
<title>MatProgressSpinnerModule&#45;&gt;QuartoModule</title>
<path fill="none" stroke="black" d="M722.36,-84.91C722.36,-84.91 722.36,-103.79 722.36,-103.79"/>
<polygon fill="black" stroke="black" points="718.86,-103.79 722.36,-113.79 725.86,-103.79 718.86,-103.79"/>
</g>
<!-- QuartoRoutingModule -->
<g id="node8" class="node">
<title>QuartoRoutingModule</title>
<polygon fill="#8dd3c7" stroke="black" points="558.54,-84.8 555.54,-88.8 534.54,-88.8 531.54,-84.8 415.46,-84.8 415.46,-48.8 558.54,-48.8 558.54,-84.8"/>
<text text-anchor="middle" x="487" y="-62.6" font-family="Times,serif" font-size="14.00">QuartoRoutingModule</text>
</g>
<!-- QuartoRoutingModule&#45;&gt;QuartoModule -->
<g id="edge7" class="edge">
<title>QuartoRoutingModule&#45;&gt;QuartoModule</title>
<path fill="none" stroke="black" d="M487,-84.81C487,-100.85 487,-121.8 487,-121.8 487,-121.8 683.64,-121.8 683.64,-121.8"/>
<polygon fill="black" stroke="black" points="683.64,-125.3 693.64,-121.8 683.64,-118.3 683.64,-125.3"/>
</g>
<!-- FormsModule -->
<g id="node9" class="node">
<title>FormsModule</title>
<polygon fill="#8dd3c7" stroke="black" points="397.83,-84.8 394.83,-88.8 373.83,-88.8 370.83,-84.8 302.17,-84.8 302.17,-48.8 397.83,-48.8 397.83,-84.8"/>
<text text-anchor="middle" x="350" y="-62.6" font-family="Times,serif" font-size="14.00">FormsModule</text>
</g>
<!-- FormsModule&#45;&gt;QuartoModule -->
<g id="edge8" class="edge">
<title>FormsModule&#45;&gt;QuartoModule</title>
<path fill="none" stroke="black" d="M350,-85.07C350,-103.36 350,-128.8 350,-128.8 350,-128.8 683.62,-128.8 683.62,-128.8"/>
<polygon fill="black" stroke="black" points="683.62,-132.3 693.62,-128.8 683.62,-125.3 683.62,-132.3"/>
</g>
<!-- ReactiveFormsModule -->
<g id="node10" class="node">
<title>ReactiveFormsModule</title>
<polygon fill="#8dd3c7" stroke="black" points="284.3,-84.8 281.3,-88.8 260.3,-88.8 257.3,-84.8 139.7,-84.8 139.7,-48.8 284.3,-48.8 284.3,-84.8"/>
<text text-anchor="middle" x="212" y="-62.6" font-family="Times,serif" font-size="14.00">ReactiveFormsModule</text>
</g>
<!-- ReactiveFormsModule&#45;&gt;QuartoModule -->
<g id="edge9" class="edge">
<title>ReactiveFormsModule&#45;&gt;QuartoModule</title>
<path fill="none" stroke="black" d="M212,-84.93C212,-105.37 212,-135.8 212,-135.8 212,-135.8 683.52,-135.8 683.52,-135.8"/>
<polygon fill="black" stroke="black" points="683.52,-139.3 693.52,-135.8 683.52,-132.3 683.52,-139.3"/>
</g>
<!-- SharedModule -->
<g id="node11" class="node">
<title>SharedModule</title>
<polygon fill="#8dd3c7" stroke="black" points="122.42,-84.8 119.42,-88.8 98.42,-88.8 95.42,-84.8 23.58,-84.8 23.58,-48.8 122.42,-48.8 122.42,-84.8"/>
<text text-anchor="middle" x="73" y="-62.6" font-family="Times,serif" font-size="14.00">SharedModule</text>
</g>
<!-- SharedModule&#45;&gt;QuartoModule -->
<g id="edge10" class="edge">
<title>SharedModule&#45;&gt;QuartoModule</title>
<path fill="none" stroke="black" d="M73,-84.81C73,-107.29 73,-142.8 73,-142.8 73,-142.8 683.73,-142.8 683.73,-142.8"/>
<polygon fill="black" stroke="black" points="683.73,-146.3 693.73,-142.8 683.73,-139.3 683.73,-146.3"/>
</g>
</g>
</svg>
