<?xml version="1.0" encoding="UTF-8" standalone="no"?>
<!DOCTYPE svg PUBLIC "-//W3C//DTD SVG 1.1//EN"
 "http://www.w3.org/Graphics/SVG/1.1/DTD/svg11.dtd">
<!-- Generated by graphviz version 2.47.3 (20210619.1520)
 -->
<!-- Title: dependencies Pages: 1 -->
<svg width="1435pt" height="247pt"
 viewBox="0.00 0.00 1435.00 246.80" xmlns="http://www.w3.org/2000/svg" xmlns:xlink="http://www.w3.org/1999/xlink">
<g id="graph0" class="graph" transform="scale(1 1) rotate(0) translate(4 242.8)">
<title>dependencies</title>
<polygon fill="white" stroke="transparent" points="-4,4 -4,-242.8 1431,-242.8 1431,4 -4,4"/>
<text text-anchor="middle" x="713.5" y="-8.2" font-family="sans-serif" font-size="14.00">dependencies</text>
<g id="clust1" class="cluster">
<title>cluster_MovimentacaoModule</title>
<polygon fill="none" stroke="black" stroke-dasharray="1,5" points="8,-32.8 8,-230.8 1419,-230.8 1419,-32.8 8,-32.8"/>
</g>
<g id="clust4" class="cluster">
<title>cluster_MovimentacaoModule_imports</title>
<polygon fill="none" stroke="black" points="228,-40.8 228,-92.8 1411,-92.8 1411,-40.8 228,-40.8"/>
</g>
<g id="clust5" class="cluster">
<title>cluster_MovimentacaoModule_exports</title>
<polygon fill="none" stroke="black" points="619,-170.8 619,-222.8 825,-222.8 825,-170.8 619,-170.8"/>
</g>
<g id="clust2" class="cluster">
<title>cluster_MovimentacaoModule_declarations</title>
<polygon fill="none" stroke="black" points="16,-40.8 16,-92.8 220,-92.8 220,-40.8 16,-40.8"/>
</g>
<!-- MovimentacaoListComponent -->
<g id="node1" class="node">
<title>MovimentacaoListComponent</title>
<polygon fill="#ffffb3" stroke="black" points="211.59,-84.8 24.41,-84.8 24.41,-48.8 211.59,-48.8 211.59,-84.8"/>
<text text-anchor="middle" x="118" y="-62.6" font-family="Times,serif" font-size="14.00">MovimentacaoListComponent</text>
</g>
<!-- MovimentacaoModule -->
<g id="node2" class="node">
<title>MovimentacaoModule</title>
<polygon fill="#8dd3c7" stroke="black" points="793.53,-149.8 790.53,-153.8 769.53,-153.8 766.53,-149.8 650.47,-149.8 650.47,-113.8 793.53,-113.8 793.53,-149.8"/>
<text text-anchor="middle" x="722" y="-127.6" font-family="Times,serif" font-size="14.00">MovimentacaoModule</text>
</g>
<!-- MovimentacaoListComponent&#45;&gt;MovimentacaoModule -->
<g id="edge1" class="edge">
<title>MovimentacaoListComponent&#45;&gt;MovimentacaoModule</title>
<path fill="none" stroke="black" d="M118,-84.81C118,-107.29 118,-142.8 118,-142.8 118,-142.8 640.34,-142.8 640.34,-142.8"/>
<polygon fill="black" stroke="black" points="640.34,-146.3 650.34,-142.8 640.34,-139.3 640.34,-146.3"/>
</g>
<!-- MovimentacaoListComponent  -->
<g id="node11" class="node">
<title>MovimentacaoListComponent </title>
<polygon fill="#fb8072" stroke="black" points="817.09,-214.8 626.91,-214.8 626.91,-178.8 817.09,-178.8 817.09,-214.8"/>
<text text-anchor="middle" x="722" y="-192.6" font-family="Times,serif" font-size="14.00">MovimentacaoListComponent </text>
</g>
<!-- MovimentacaoModule&#45;&gt;MovimentacaoListComponent  -->
<g id="edge10" class="edge">
<title>MovimentacaoModule&#45;&gt;MovimentacaoListComponent </title>
<path fill="none" stroke="black" stroke-dasharray="5,2" d="M722,-149.91C722,-149.91 722,-168.79 722,-168.79"/>
<polygon fill="black" stroke="black" points="718.5,-168.79 722,-178.79 725.5,-168.79 718.5,-168.79"/>
</g>
<!-- CommonModule -->
<g id="node3" class="node">
<title>CommonModule</title>
<polygon fill="#8dd3c7" stroke="black" points="1402.67,-84.8 1399.67,-88.8 1378.67,-88.8 1375.67,-84.8 1291.33,-84.8 1291.33,-48.8 1402.67,-48.8 1402.67,-84.8"/>
<text text-anchor="middle" x="1347" y="-62.6" font-family="Times,serif" font-size="14.00">CommonModule</text>
</g>
<!-- CommonModule&#45;&gt;MovimentacaoModule -->
<g id="edge2" class="edge">
<title>CommonModule&#45;&gt;MovimentacaoModule</title>
<path fill="none" stroke="black" d="M1347,-84.81C1347,-107.29 1347,-142.8 1347,-142.8 1347,-142.8 803.7,-142.8 803.7,-142.8"/>
<polygon fill="black" stroke="black" points="803.7,-139.3 793.7,-142.8 803.7,-146.3 803.7,-139.3"/>
</g>
<!-- MatCardModule -->
<g id="node4" class="node">
<title>MatCardModule</title>
<polygon fill="#8dd3c7" stroke="black" points="1273.81,-84.8 1270.81,-88.8 1249.81,-88.8 1246.81,-84.8 1164.19,-84.8 1164.19,-48.8 1273.81,-48.8 1273.81,-84.8"/>
<text text-anchor="middle" x="1219" y="-62.6" font-family="Times,serif" font-size="14.00">MatCardModule</text>
</g>
<!-- MatCardModule&#45;&gt;MovimentacaoModule -->
<g id="edge3" class="edge">
<title>MatCardModule&#45;&gt;MovimentacaoModule</title>
<path fill="none" stroke="black" d="M1219,-84.93C1219,-105.37 1219,-135.8 1219,-135.8 1219,-135.8 803.74,-135.8 803.74,-135.8"/>
<polygon fill="black" stroke="black" points="803.74,-132.3 793.74,-135.8 803.74,-139.3 803.74,-132.3"/>
</g>
<!-- MatButtonModule -->
<g id="node5" class="node">
<title>MatButtonModule</title>
<polygon fill="#8dd3c7" stroke="black" points="1146.22,-84.8 1143.22,-88.8 1122.22,-88.8 1119.22,-84.8 1025.78,-84.8 1025.78,-48.8 1146.22,-48.8 1146.22,-84.8"/>
<text text-anchor="middle" x="1086" y="-62.6" font-family="Times,serif" font-size="14.00">MatButtonModule</text>
</g>
<!-- MatButtonModule&#45;&gt;MovimentacaoModule -->
<g id="edge4" class="edge">
<title>MatButtonModule&#45;&gt;MovimentacaoModule</title>
<path fill="none" stroke="black" d="M1086,-85.07C1086,-103.36 1086,-128.8 1086,-128.8 1086,-128.8 803.91,-128.8 803.91,-128.8"/>
<polygon fill="black" stroke="black" points="803.91,-125.3 793.91,-128.8 803.91,-132.3 803.91,-125.3"/>
</g>
<!-- MatProgressSpinnerModule -->
<g id="node6" class="node">
<title>MatProgressSpinnerModule</title>
<polygon fill="#8dd3c7" stroke="black" points="1007.86,-84.8 1004.86,-88.8 983.86,-88.8 980.86,-84.8 834.14,-84.8 834.14,-48.8 1007.86,-48.8 1007.86,-84.8"/>
<text text-anchor="middle" x="921" y="-62.6" font-family="Times,serif" font-size="14.00">MatProgressSpinnerModule</text>
</g>
<!-- MatProgressSpinnerModule&#45;&gt;MovimentacaoModule -->
<g id="edge5" class="edge">
<title>MatProgressSpinnerModule&#45;&gt;MovimentacaoModule</title>
<path fill="none" stroke="black" d="M921,-84.81C921,-100.85 921,-121.8 921,-121.8 921,-121.8 803.56,-121.8 803.56,-121.8"/>
<polygon fill="black" stroke="black" points="803.56,-118.3 793.56,-121.8 803.56,-125.3 803.56,-118.3"/>
</g>
<!-- MovimentacaoRoutingModule -->
<g id="node7" class="node">
<title>MovimentacaoRoutingModule</title>
<polygon fill="#8dd3c7" stroke="black" points="816.14,-84.8 813.14,-88.8 792.14,-88.8 789.14,-84.8 627.86,-84.8 627.86,-48.8 816.14,-48.8 816.14,-84.8"/>
<text text-anchor="middle" x="722" y="-62.6" font-family="Times,serif" font-size="14.00">MovimentacaoRoutingModule</text>
</g>
<!-- MovimentacaoRoutingModule&#45;&gt;MovimentacaoModule -->
<g id="edge6" class="edge">
<title>MovimentacaoRoutingModule&#45;&gt;MovimentacaoModule</title>
<path fill="none" stroke="black" d="M722,-84.91C722,-84.91 722,-103.79 722,-103.79"/>
<polygon fill="black" stroke="black" points="718.5,-103.79 722,-113.79 725.5,-103.79 718.5,-103.79"/>
</g>
<!-- FormsModule -->
<g id="node8" class="node">
<title>FormsModule</title>
<polygon fill="#8dd3c7" stroke="black" points="609.83,-84.8 606.83,-88.8 585.83,-88.8 582.83,-84.8 514.17,-84.8 514.17,-48.8 609.83,-48.8 609.83,-84.8"/>
<text text-anchor="middle" x="562" y="-62.6" font-family="Times,serif" font-size="14.00">FormsModule</text>
</g>
<!-- FormsModule&#45;&gt;MovimentacaoModule -->
<g id="edge7" class="edge">
<title>FormsModule&#45;&gt;MovimentacaoModule</title>
<path fill="none" stroke="black" d="M562,-84.81C562,-100.85 562,-121.8 562,-121.8 562,-121.8 640.42,-121.8 640.42,-121.8"/>
<polygon fill="black" stroke="black" points="640.42,-125.3 650.42,-121.8 640.42,-118.3 640.42,-125.3"/>
</g>
<!-- ReactiveFormsModule -->
<g id="node9" class="node">
<title>ReactiveFormsModule</title>
<polygon fill="#8dd3c7" stroke="black" points="496.3,-84.8 493.3,-88.8 472.3,-88.8 469.3,-84.8 351.7,-84.8 351.7,-48.8 496.3,-48.8 496.3,-84.8"/>
<text text-anchor="middle" x="424" y="-62.6" font-family="Times,serif" font-size="14.00">ReactiveFormsModule</text>
</g>
<!-- ReactiveFormsModule&#45;&gt;MovimentacaoModule -->
<g id="edge8" class="edge">
<title>ReactiveFormsModule&#45;&gt;MovimentacaoModule</title>
<path fill="none" stroke="black" d="M424,-85.07C424,-103.36 424,-128.8 424,-128.8 424,-128.8 640.24,-128.8 640.24,-128.8"/>
<polygon fill="black" stroke="black" points="640.24,-132.3 650.24,-128.8 640.24,-125.3 640.24,-132.3"/>
</g>
<!-- SharedModule -->
<g id="node10" class="node">
<title>SharedModule</title>
<polygon fill="#8dd3c7" stroke="black" points="334.42,-84.8 331.42,-88.8 310.42,-88.8 307.42,-84.8 235.58,-84.8 235.58,-48.8 334.42,-48.8 334.42,-84.8"/>
<text text-anchor="middle" x="285" y="-62.6" font-family="Times,serif" font-size="14.00">SharedModule</text>
</g>
<!-- SharedModule&#45;&gt;MovimentacaoModule -->
<g id="edge9" class="edge">
<title>SharedModule&#45;&gt;MovimentacaoModule</title>
<path fill="none" stroke="black" d="M285,-84.93C285,-105.37 285,-135.8 285,-135.8 285,-135.8 640.33,-135.8 640.33,-135.8"/>
<polygon fill="black" stroke="black" points="640.33,-139.3 650.33,-135.8 640.33,-132.3 640.33,-139.3"/>
</g>
</g>
</svg>
