<?xml version="1.0" encoding="UTF-8" standalone="no"?>
<!DOCTYPE svg PUBLIC "-//W3C//DTD SVG 1.1//EN"
 "http://www.w3.org/Graphics/SVG/1.1/DTD/svg11.dtd">
<!-- Generated by graphviz version 2.47.3 (20210619.1520)
 -->
<!-- Title: dependencies Pages: 1 -->
<svg width="1932pt" height="247pt"
 viewBox="0.00 0.00 1932.00 246.80" xmlns="http://www.w3.org/2000/svg" xmlns:xlink="http://www.w3.org/1999/xlink">
<g id="graph0" class="graph" transform="scale(1 1) rotate(0) translate(4 242.8)">
<title>dependencies</title>
<polygon fill="white" stroke="transparent" points="-4,4 -4,-242.8 1928,-242.8 1928,4 -4,4"/>
<text text-anchor="middle" x="962" y="-8.2" font-family="sans-serif" font-size="14.00">dependencies</text>
<g id="clust1" class="cluster">
<title>cluster_AppModule</title>
<polygon fill="none" stroke="black" stroke-dasharray="1,5" points="8,-32.8 8,-230.8 1916,-230.8 1916,-32.8 8,-32.8"/>
</g>
<g id="clust7" class="cluster">
<title>cluster_AppModule_bootstrap</title>
<polygon fill="none" stroke="black" points="852,-170.8 852,-222.8 976,-222.8 976,-170.8 852,-170.8"/>
</g>
<g id="clust5" class="cluster">
<title>cluster_AppModule_imports</title>
<polygon fill="none" stroke="black" points="279,-40.8 279,-92.8 1908,-92.8 1908,-40.8 279,-40.8"/>
</g>
<g id="clust2" class="cluster">
<title>cluster_AppModule_declarations</title>
<polygon fill="none" stroke="black" points="16,-40.8 16,-92.8 271,-92.8 271,-40.8 16,-40.8"/>
</g>
<!-- AppComponent -->
<g id="node1" class="node">
<title>AppComponent</title>
<polygon fill="#ffffb3" stroke="black" points="262.94,-84.8 157.06,-84.8 157.06,-48.8 262.94,-48.8 262.94,-84.8"/>
<text text-anchor="middle" x="210" y="-62.6" font-family="Times,serif" font-size="14.00">AppComponent</text>
</g>
<!-- AppModule -->
<g id="node3" class="node">
<title>AppModule</title>
<polygon fill="#8dd3c7" stroke="black" points="955.66,-149.8 952.66,-153.8 931.66,-153.8 928.66,-149.8 872.34,-149.8 872.34,-113.8 955.66,-113.8 955.66,-149.8"/>
<text text-anchor="middle" x="914" y="-127.6" font-family="Times,serif" font-size="14.00">AppModule</text>
</g>
<!-- AppComponent&#45;&gt;AppModule -->
<g id="edge1" class="edge">
<title>AppComponent&#45;&gt;AppModule</title>
<path fill="none" stroke="black" d="M210,-84.84C210,-106.46 210,-139.8 210,-139.8 210,-139.8 862.33,-139.8 862.33,-139.8"/>
<polygon fill="black" stroke="black" points="862.33,-143.3 872.33,-139.8 862.33,-136.3 862.33,-143.3"/>
</g>
<!-- HomeComponent -->
<g id="node2" class="node">
<title>HomeComponent</title>
<polygon fill="#ffffb3" stroke="black" points="139.55,-84.8 24.45,-84.8 24.45,-48.8 139.55,-48.8 139.55,-84.8"/>
<text text-anchor="middle" x="82" y="-62.6" font-family="Times,serif" font-size="14.00">HomeComponent</text>
</g>
<!-- HomeComponent&#45;&gt;AppModule -->
<g id="edge2" class="edge">
<title>HomeComponent&#45;&gt;AppModule</title>
<path fill="none" stroke="black" d="M82,-84.89C82,-107.93 82,-144.8 82,-144.8 82,-144.8 862.17,-144.8 862.17,-144.8"/>
<polygon fill="black" stroke="black" points="862.17,-148.3 872.17,-144.8 862.17,-141.3 862.17,-148.3"/>
</g>
<!-- AppComponent  -->
<g id="node16" class="node">
<title>AppComponent </title>
<polygon fill="#80b1d3" stroke="black" points="968.44,-214.8 859.56,-214.8 859.56,-178.8 968.44,-178.8 968.44,-214.8"/>
<text text-anchor="middle" x="914" y="-192.6" font-family="Times,serif" font-size="14.00">AppComponent </text>
</g>
<!-- AppModule&#45;&gt;AppComponent  -->
<g id="edge15" class="edge">
<title>AppModule&#45;&gt;AppComponent </title>
<path fill="none" stroke="black" stroke-dasharray="1,5" d="M914,-149.91C914,-149.91 914,-168.79 914,-168.79"/>
<polygon fill="black" stroke="black" points="910.5,-168.79 914,-178.79 917.5,-168.79 910.5,-168.79"/>
</g>
<!-- BrowserModule -->
<g id="node4" class="node">
<title>BrowserModule</title>
<polygon fill="#8dd3c7" stroke="black" points="1900.47,-84.8 1897.47,-88.8 1876.47,-88.8 1873.47,-84.8 1793.53,-84.8 1793.53,-48.8 1900.47,-48.8 1900.47,-84.8"/>
<text text-anchor="middle" x="1847" y="-62.6" font-family="Times,serif" font-size="14.00">BrowserModule</text>
</g>
<!-- BrowserModule&#45;&gt;AppModule -->
<g id="edge3" class="edge">
<title>BrowserModule&#45;&gt;AppModule</title>
<path fill="none" stroke="black" d="M1847,-84.89C1847,-107.93 1847,-144.8 1847,-144.8 1847,-144.8 965.9,-144.8 965.9,-144.8"/>
<polygon fill="black" stroke="black" points="965.9,-141.3 955.9,-144.8 965.9,-148.3 965.9,-141.3"/>
</g>
<!-- AppRoutingModule -->
<g id="node5" class="node">
<title>AppRoutingModule</title>
<polygon fill="#8dd3c7" stroke="black" points="1775.27,-84.8 1772.27,-88.8 1751.27,-88.8 1748.27,-84.8 1646.73,-84.8 1646.73,-48.8 1775.27,-48.8 1775.27,-84.8"/>
<text text-anchor="middle" x="1711" y="-62.6" font-family="Times,serif" font-size="14.00">AppRoutingModule</text>
</g>
<!-- AppRoutingModule&#45;&gt;AppModule -->
<g id="edge4" class="edge">
<title>AppRoutingModule&#45;&gt;AppModule</title>
<path fill="none" stroke="black" d="M1711,-84.84C1711,-106.46 1711,-139.8 1711,-139.8 1711,-139.8 965.73,-139.8 965.73,-139.8"/>
<polygon fill="black" stroke="black" points="965.73,-136.3 955.73,-139.8 965.73,-143.3 965.73,-136.3"/>
</g>
<!-- FormsModule -->
<g id="node6" class="node">
<title>FormsModule</title>
<polygon fill="#8dd3c7" stroke="black" points="1628.83,-84.8 1625.83,-88.8 1604.83,-88.8 1601.83,-84.8 1533.17,-84.8 1533.17,-48.8 1628.83,-48.8 1628.83,-84.8"/>
<text text-anchor="middle" x="1581" y="-62.6" font-family="Times,serif" font-size="14.00">FormsModule</text>
</g>
<!-- FormsModule&#45;&gt;AppModule -->
<g id="edge5" class="edge">
<title>FormsModule&#45;&gt;AppModule</title>
<path fill="none" stroke="black" d="M1581,-85.02C1581,-105.17 1581,-134.8 1581,-134.8 1581,-134.8 965.72,-134.8 965.72,-134.8"/>
<polygon fill="black" stroke="black" points="965.72,-131.3 955.72,-134.8 965.72,-138.3 965.72,-131.3"/>
</g>
<!-- HttpClientModule -->
<g id="node7" class="node">
<title>HttpClientModule</title>
<polygon fill="#8dd3c7" stroke="black" points="1515.16,-84.8 1512.16,-88.8 1491.16,-88.8 1488.16,-84.8 1396.84,-84.8 1396.84,-48.8 1515.16,-48.8 1515.16,-84.8"/>
<text text-anchor="middle" x="1456" y="-62.6" font-family="Times,serif" font-size="14.00">HttpClientModule</text>
</g>
<!-- HttpClientModule&#45;&gt;AppModule -->
<g id="edge6" class="edge">
<title>HttpClientModule&#45;&gt;AppModule</title>
<path fill="none" stroke="black" d="M1456,-85.02C1456,-103.63 1456,-129.8 1456,-129.8 1456,-129.8 966.08,-129.8 966.08,-129.8"/>
<polygon fill="black" stroke="black" points="966.08,-126.3 956.08,-129.8 966.08,-133.3 966.08,-126.3"/>
</g>
<!-- BrowserAnimationsModule -->
<g id="node8" class="node">
<title>BrowserAnimationsModule</title>
<polygon fill="#8dd3c7" stroke="black" points="1379.3,-84.8 1376.3,-88.8 1355.3,-88.8 1352.3,-84.8 1206.7,-84.8 1206.7,-48.8 1379.3,-48.8 1379.3,-84.8"/>
<text text-anchor="middle" x="1293" y="-62.6" font-family="Times,serif" font-size="14.00">BrowserAnimationsModule</text>
</g>
<!-- BrowserAnimationsModule&#45;&gt;AppModule -->
<g id="edge7" class="edge">
<title>BrowserAnimationsModule&#45;&gt;AppModule</title>
<path fill="none" stroke="black" d="M1293,-84.83C1293,-101.86 1293,-124.8 1293,-124.8 1293,-124.8 966.01,-124.8 966.01,-124.8"/>
<polygon fill="black" stroke="black" points="966.01,-121.3 956.01,-124.8 966.01,-128.3 966.01,-121.3"/>
</g>
<!-- MatToolbarModule -->
<g id="node9" class="node">
<title>MatToolbarModule</title>
<polygon fill="#8dd3c7" stroke="black" points="1189.42,-84.8 1186.42,-88.8 1165.42,-88.8 1162.42,-84.8 1062.58,-84.8 1062.58,-48.8 1189.42,-48.8 1189.42,-84.8"/>
<text text-anchor="middle" x="1126" y="-62.6" font-family="Times,serif" font-size="14.00">MatToolbarModule</text>
</g>
<!-- MatToolbarModule&#45;&gt;AppModule -->
<g id="edge8" class="edge">
<title>MatToolbarModule&#45;&gt;AppModule</title>
<path fill="none" stroke="black" d="M1126,-85.04C1126,-100.37 1126,-119.8 1126,-119.8 1126,-119.8 965.88,-119.8 965.88,-119.8"/>
<polygon fill="black" stroke="black" points="965.88,-116.3 955.88,-119.8 965.88,-123.3 965.88,-116.3"/>
</g>
<!-- MatSidenavModule -->
<g id="node10" class="node">
<title>MatSidenavModule</title>
<polygon fill="#8dd3c7" stroke="black" points="1044.7,-84.8 1041.7,-88.8 1020.7,-88.8 1017.7,-84.8 917.3,-84.8 917.3,-48.8 1044.7,-48.8 1044.7,-84.8"/>
<text text-anchor="middle" x="981" y="-62.6" font-family="Times,serif" font-size="14.00">MatSidenavModule</text>
</g>
<!-- MatSidenavModule&#45;&gt;AppModule -->
<g id="edge9" class="edge">
<title>MatSidenavModule&#45;&gt;AppModule</title>
<path fill="none" stroke="black" d="M936.61,-84.91C936.61,-84.91 936.61,-103.79 936.61,-103.79"/>
<polygon fill="black" stroke="black" points="933.11,-103.79 936.61,-113.79 940.11,-103.79 933.11,-103.79"/>
</g>
<!-- MatListModule -->
<g id="node11" class="node">
<title>MatListModule</title>
<polygon fill="#8dd3c7" stroke="black" points="898.88,-84.8 895.88,-88.8 874.88,-88.8 871.88,-84.8 795.12,-84.8 795.12,-48.8 898.88,-48.8 898.88,-84.8"/>
<text text-anchor="middle" x="847" y="-62.6" font-family="Times,serif" font-size="14.00">MatListModule</text>
</g>
<!-- MatListModule&#45;&gt;AppModule -->
<g id="edge10" class="edge">
<title>MatListModule&#45;&gt;AppModule</title>
<path fill="none" stroke="black" d="M885.56,-84.91C885.56,-84.91 885.56,-103.79 885.56,-103.79"/>
<polygon fill="black" stroke="black" points="882.06,-103.79 885.56,-113.79 889.06,-103.79 882.06,-103.79"/>
</g>
<!-- MatButtonModule -->
<g id="node12" class="node">
<title>MatButtonModule</title>
<polygon fill="#8dd3c7" stroke="black" points="777.22,-84.8 774.22,-88.8 753.22,-88.8 750.22,-84.8 656.78,-84.8 656.78,-48.8 777.22,-48.8 777.22,-84.8"/>
<text text-anchor="middle" x="717" y="-62.6" font-family="Times,serif" font-size="14.00">MatButtonModule</text>
</g>
<!-- MatButtonModule&#45;&gt;AppModule -->
<g id="edge11" class="edge">
<title>MatButtonModule&#45;&gt;AppModule</title>
<path fill="none" stroke="black" d="M717,-85.04C717,-100.37 717,-119.8 717,-119.8 717,-119.8 862.22,-119.8 862.22,-119.8"/>
<polygon fill="black" stroke="black" points="862.22,-123.3 872.22,-119.8 862.22,-116.3 862.22,-123.3"/>
</g>
<!-- MatIconModule -->
<g id="node13" class="node">
<title>MatIconModule</title>
<polygon fill="#8dd3c7" stroke="black" points="638.47,-84.8 635.47,-88.8 614.47,-88.8 611.47,-84.8 531.53,-84.8 531.53,-48.8 638.47,-48.8 638.47,-84.8"/>
<text text-anchor="middle" x="585" y="-62.6" font-family="Times,serif" font-size="14.00">MatIconModule</text>
</g>
<!-- MatIconModule&#45;&gt;AppModule -->
<g id="edge12" class="edge">
<title>MatIconModule&#45;&gt;AppModule</title>
<path fill="none" stroke="black" d="M585,-84.83C585,-101.86 585,-124.8 585,-124.8 585,-124.8 862.33,-124.8 862.33,-124.8"/>
<polygon fill="black" stroke="black" points="862.33,-128.3 872.33,-124.8 862.33,-121.3 862.33,-128.3"/>
</g>
<!-- SharedModule -->
<g id="node14" class="node">
<title>SharedModule</title>
<polygon fill="#8dd3c7" stroke="black" points="513.42,-84.8 510.42,-88.8 489.42,-88.8 486.42,-84.8 414.58,-84.8 414.58,-48.8 513.42,-48.8 513.42,-84.8"/>
<text text-anchor="middle" x="464" y="-62.6" font-family="Times,serif" font-size="14.00">SharedModule</text>
</g>
<!-- SharedModule&#45;&gt;AppModule -->
<g id="edge13" class="edge">
<title>SharedModule&#45;&gt;AppModule</title>
<path fill="none" stroke="black" d="M464,-85.02C464,-103.63 464,-129.8 464,-129.8 464,-129.8 862.07,-129.8 862.07,-129.8"/>
<polygon fill="black" stroke="black" points="862.07,-133.3 872.07,-129.8 862.07,-126.3 862.07,-133.3"/>
</g>
<!-- MatCardModule -->
<g id="node15" class="node">
<title>MatCardModule</title>
<polygon fill="#8dd3c7" stroke="black" points="396.81,-84.8 393.81,-88.8 372.81,-88.8 369.81,-84.8 287.19,-84.8 287.19,-48.8 396.81,-48.8 396.81,-84.8"/>
<text text-anchor="middle" x="342" y="-62.6" font-family="Times,serif" font-size="14.00">MatCardModule</text>
</g>
<!-- MatCardModule&#45;&gt;AppModule -->
<g id="edge14" class="edge">
<title>MatCardModule&#45;&gt;AppModule</title>
<path fill="none" stroke="black" d="M342,-85.02C342,-105.17 342,-134.8 342,-134.8 342,-134.8 861.94,-134.8 861.94,-134.8"/>
<polygon fill="black" stroke="black" points="861.94,-138.3 871.94,-134.8 861.94,-131.3 861.94,-138.3"/>
</g>
</g>
</svg>
