<?xml version="1.0" encoding="UTF-8" standalone="no"?>
<!DOCTYPE svg PUBLIC "-//W3C//DTD SVG 1.1//EN"
 "http://www.w3.org/Graphics/SVG/1.1/DTD/svg11.dtd">
<!-- Generated by graphviz version 2.47.3 (20210619.1520)
 -->
<!-- Title: dependencies Pages: 1 -->
<svg width="1510pt" height="247pt"
 viewBox="0.00 0.00 1510.00 246.80" xmlns="http://www.w3.org/2000/svg" xmlns:xlink="http://www.w3.org/1999/xlink">
<g id="graph0" class="graph" transform="scale(1 1) rotate(0) translate(4 242.8)">
<title>dependencies</title>
<polygon fill="white" stroke="transparent" points="-4,4 -4,-242.8 1506,-242.8 1506,4 -4,4"/>
<text text-anchor="middle" x="751" y="-8.2" font-family="sans-serif" font-size="14.00">dependencies</text>
<g id="clust1" class="cluster">
<title>cluster_PessoaModule</title>
<polygon fill="none" stroke="black" stroke-dasharray="1,5" points="8,-32.8 8,-230.8 1494,-230.8 1494,-32.8 8,-32.8"/>
</g>
<g id="clust6" class="cluster">
<title>cluster_PessoaModule_exports</title>
<polygon fill="none" stroke="black" points="577,-170.8 577,-222.8 909,-222.8 909,-170.8 577,-170.8"/>
</g>
<g id="clust2" class="cluster">
<title>cluster_PessoaModule_declarations</title>
<polygon fill="none" stroke="black" points="1161,-40.8 1161,-92.8 1486,-92.8 1486,-40.8 1161,-40.8"/>
</g>
<g id="clust5" class="cluster">
<title>cluster_PessoaModule_imports</title>
<polygon fill="none" stroke="black" points="16,-40.8 16,-92.8 1153,-92.8 1153,-40.8 16,-40.8"/>
</g>
<!-- PessoaFormComponent -->
<g id="node1" class="node">
<title>PessoaFormComponent</title>
<polygon fill="#ffffb3" stroke="black" points="1477.77,-84.8 1328.23,-84.8 1328.23,-48.8 1477.77,-48.8 1477.77,-84.8"/>
<text text-anchor="middle" x="1403" y="-62.6" font-family="Times,serif" font-size="14.00">PessoaFormComponent</text>
</g>
<!-- PessoaModule -->
<g id="node3" class="node">
<title>PessoaModule</title>
<polygon fill="#8dd3c7" stroke="black" points="793.65,-149.8 790.65,-153.8 769.65,-153.8 766.65,-149.8 696.35,-149.8 696.35,-113.8 793.65,-113.8 793.65,-149.8"/>
<text text-anchor="middle" x="745" y="-127.6" font-family="Times,serif" font-size="14.00">PessoaModule</text>
</g>
<!-- PessoaFormComponent&#45;&gt;PessoaModule -->
<g id="edge1" class="edge">
<title>PessoaFormComponent&#45;&gt;PessoaModule</title>
<path fill="none" stroke="black" d="M1403,-84.81C1403,-107.29 1403,-142.8 1403,-142.8 1403,-142.8 803.65,-142.8 803.65,-142.8"/>
<polygon fill="black" stroke="black" points="803.65,-139.3 793.65,-142.8 803.65,-146.3 803.65,-139.3"/>
</g>
<!-- PessoaListComponent -->
<g id="node2" class="node">
<title>PessoaListComponent</title>
<polygon fill="#ffffb3" stroke="black" points="1310.71,-84.8 1169.29,-84.8 1169.29,-48.8 1310.71,-48.8 1310.71,-84.8"/>
<text text-anchor="middle" x="1240" y="-62.6" font-family="Times,serif" font-size="14.00">PessoaListComponent</text>
</g>
<!-- PessoaListComponent&#45;&gt;PessoaModule -->
<g id="edge2" class="edge">
<title>PessoaListComponent&#45;&gt;PessoaModule</title>
<path fill="none" stroke="black" d="M1240,-84.93C1240,-105.37 1240,-135.8 1240,-135.8 1240,-135.8 803.82,-135.8 803.82,-135.8"/>
<polygon fill="black" stroke="black" points="803.82,-132.3 793.82,-135.8 803.82,-139.3 803.82,-132.3"/>
</g>
<!-- PessoaListComponent  -->
<g id="node12" class="node">
<title>PessoaListComponent </title>
<polygon fill="#fb8072" stroke="black" points="901.21,-214.8 756.79,-214.8 756.79,-178.8 901.21,-178.8 901.21,-214.8"/>
<text text-anchor="middle" x="829" y="-192.6" font-family="Times,serif" font-size="14.00">PessoaListComponent </text>
</g>
<!-- PessoaModule&#45;&gt;PessoaListComponent  -->
<g id="edge11" class="edge">
<title>PessoaModule&#45;&gt;PessoaListComponent </title>
<path fill="none" stroke="black" stroke-dasharray="5,2" d="M775.23,-149.91C775.23,-149.91 775.23,-168.79 775.23,-168.79"/>
<polygon fill="black" stroke="black" points="771.73,-168.79 775.23,-178.79 778.73,-168.79 771.73,-168.79"/>
</g>
<!-- PessoaFormComponent  -->
<g id="node13" class="node">
<title>PessoaFormComponent </title>
<polygon fill="#fb8072" stroke="black" points="738.77,-214.8 585.23,-214.8 585.23,-178.8 738.77,-178.8 738.77,-214.8"/>
<text text-anchor="middle" x="662" y="-192.6" font-family="Times,serif" font-size="14.00">PessoaFormComponent </text>
</g>
<!-- PessoaModule&#45;&gt;PessoaFormComponent  -->
<g id="edge12" class="edge">
<title>PessoaModule&#45;&gt;PessoaFormComponent </title>
<path fill="none" stroke="black" stroke-dasharray="5,2" d="M717.4,-149.91C717.4,-149.91 717.4,-168.79 717.4,-168.79"/>
<polygon fill="black" stroke="black" points="713.9,-168.79 717.4,-178.79 720.9,-168.79 713.9,-168.79"/>
</g>
<!-- CommonModule -->
<g id="node4" class="node">
<title>CommonModule</title>
<polygon fill="#8dd3c7" stroke="black" points="1144.67,-84.8 1141.67,-88.8 1120.67,-88.8 1117.67,-84.8 1033.33,-84.8 1033.33,-48.8 1144.67,-48.8 1144.67,-84.8"/>
<text text-anchor="middle" x="1089" y="-62.6" font-family="Times,serif" font-size="14.00">CommonModule</text>
</g>
<!-- CommonModule&#45;&gt;PessoaModule -->
<g id="edge3" class="edge">
<title>CommonModule&#45;&gt;PessoaModule</title>
<path fill="none" stroke="black" d="M1089,-85.07C1089,-103.36 1089,-128.8 1089,-128.8 1089,-128.8 803.92,-128.8 803.92,-128.8"/>
<polygon fill="black" stroke="black" points="803.92,-125.3 793.92,-128.8 803.92,-132.3 803.92,-125.3"/>
</g>
<!-- MatCardModule -->
<g id="node5" class="node">
<title>MatCardModule</title>
<polygon fill="#8dd3c7" stroke="black" points="1015.81,-84.8 1012.81,-88.8 991.81,-88.8 988.81,-84.8 906.19,-84.8 906.19,-48.8 1015.81,-48.8 1015.81,-84.8"/>
<text text-anchor="middle" x="961" y="-62.6" font-family="Times,serif" font-size="14.00">MatCardModule</text>
</g>
<!-- MatCardModule&#45;&gt;PessoaModule -->
<g id="edge4" class="edge">
<title>MatCardModule&#45;&gt;PessoaModule</title>
<path fill="none" stroke="black" d="M961,-84.81C961,-100.85 961,-121.8 961,-121.8 961,-121.8 803.74,-121.8 803.74,-121.8"/>
<polygon fill="black" stroke="black" points="803.74,-118.3 793.74,-121.8 803.74,-125.3 803.74,-118.3"/>
</g>
<!-- MatButtonModule -->
<g id="node6" class="node">
<title>MatButtonModule</title>
<polygon fill="#8dd3c7" stroke="black" points="888.22,-84.8 885.22,-88.8 864.22,-88.8 861.22,-84.8 767.78,-84.8 767.78,-48.8 888.22,-48.8 888.22,-84.8"/>
<text text-anchor="middle" x="828" y="-62.6" font-family="Times,serif" font-size="14.00">MatButtonModule</text>
</g>
<!-- MatButtonModule&#45;&gt;PessoaModule -->
<g id="edge5" class="edge">
<title>MatButtonModule&#45;&gt;PessoaModule</title>
<path fill="none" stroke="black" d="M780.86,-84.91C780.86,-84.91 780.86,-103.79 780.86,-103.79"/>
<polygon fill="black" stroke="black" points="777.36,-103.79 780.86,-113.79 784.36,-103.79 777.36,-103.79"/>
</g>
<!-- MatProgressSpinnerModule -->
<g id="node7" class="node">
<title>MatProgressSpinnerModule</title>
<polygon fill="#8dd3c7" stroke="black" points="749.86,-84.8 746.86,-88.8 725.86,-88.8 722.86,-84.8 576.14,-84.8 576.14,-48.8 749.86,-48.8 749.86,-84.8"/>
<text text-anchor="middle" x="663" y="-62.6" font-family="Times,serif" font-size="14.00">MatProgressSpinnerModule</text>
</g>
<!-- MatProgressSpinnerModule&#45;&gt;PessoaModule -->
<g id="edge6" class="edge">
<title>MatProgressSpinnerModule&#45;&gt;PessoaModule</title>
<path fill="none" stroke="black" d="M723.05,-84.91C723.05,-84.91 723.05,-103.79 723.05,-103.79"/>
<polygon fill="black" stroke="black" points="719.55,-103.79 723.05,-113.79 726.55,-103.79 719.55,-103.79"/>
</g>
<!-- PessoaRoutingModule -->
<g id="node8" class="node">
<title>PessoaRoutingModule</title>
<polygon fill="#8dd3c7" stroke="black" points="558.27,-84.8 555.27,-88.8 534.27,-88.8 531.27,-84.8 415.73,-84.8 415.73,-48.8 558.27,-48.8 558.27,-84.8"/>
<text text-anchor="middle" x="487" y="-62.6" font-family="Times,serif" font-size="14.00">PessoaRoutingModule</text>
</g>
<!-- PessoaRoutingModule&#45;&gt;PessoaModule -->
<g id="edge7" class="edge">
<title>PessoaRoutingModule&#45;&gt;PessoaModule</title>
<path fill="none" stroke="black" d="M487,-84.81C487,-100.85 487,-121.8 487,-121.8 487,-121.8 686.17,-121.8 686.17,-121.8"/>
<polygon fill="black" stroke="black" points="686.17,-125.3 696.17,-121.8 686.17,-118.3 686.17,-125.3"/>
</g>
<!-- FormsModule -->
<g id="node9" class="node">
<title>FormsModule</title>
<polygon fill="#8dd3c7" stroke="black" points="397.83,-84.8 394.83,-88.8 373.83,-88.8 370.83,-84.8 302.17,-84.8 302.17,-48.8 397.83,-48.8 397.83,-84.8"/>
<text text-anchor="middle" x="350" y="-62.6" font-family="Times,serif" font-size="14.00">FormsModule</text>
</g>
<!-- FormsModule&#45;&gt;PessoaModule -->
<g id="edge8" class="edge">
<title>FormsModule&#45;&gt;PessoaModule</title>
<path fill="none" stroke="black" d="M350,-85.07C350,-103.36 350,-128.8 350,-128.8 350,-128.8 686.17,-128.8 686.17,-128.8"/>
<polygon fill="black" stroke="black" points="686.17,-132.3 696.17,-128.8 686.17,-125.3 686.17,-132.3"/>
</g>
<!-- ReactiveFormsModule -->
<g id="node10" class="node">
<title>ReactiveFormsModule</title>
<polygon fill="#8dd3c7" stroke="black" points="284.3,-84.8 281.3,-88.8 260.3,-88.8 257.3,-84.8 139.7,-84.8 139.7,-48.8 284.3,-48.8 284.3,-84.8"/>
<text text-anchor="middle" x="212" y="-62.6" font-family="Times,serif" font-size="14.00">ReactiveFormsModule</text>
</g>
<!-- ReactiveFormsModule&#45;&gt;PessoaModule -->
<g id="edge9" class="edge">
<title>ReactiveFormsModule&#45;&gt;PessoaModule</title>
<path fill="none" stroke="black" d="M212,-84.93C212,-105.37 212,-135.8 212,-135.8 212,-135.8 686.29,-135.8 686.29,-135.8"/>
<polygon fill="black" stroke="black" points="686.29,-139.3 696.29,-135.8 686.29,-132.3 686.29,-139.3"/>
</g>
<!-- SharedModule -->
<g id="node11" class="node">
<title>SharedModule</title>
<polygon fill="#8dd3c7" stroke="black" points="122.42,-84.8 119.42,-88.8 98.42,-88.8 95.42,-84.8 23.58,-84.8 23.58,-48.8 122.42,-48.8 122.42,-84.8"/>
<text text-anchor="middle" x="73" y="-62.6" font-family="Times,serif" font-size="14.00">SharedModule</text>
</g>
<!-- SharedModule&#45;&gt;PessoaModule -->
<g id="edge10" class="edge">
<title>SharedModule&#45;&gt;PessoaModule</title>
<path fill="none" stroke="black" d="M73,-84.81C73,-107.29 73,-142.8 73,-142.8 73,-142.8 686.13,-142.8 686.13,-142.8"/>
<polygon fill="black" stroke="black" points="686.13,-146.3 696.13,-142.8 686.13,-139.3 686.13,-146.3"/>
</g>
</g>
</svg>
